PathFileType	4	(X/Y/Z)	 3.0Hz3min.trc
DataRate	CameraRate	NumFrames	NumMarkers	Units	OrigDataRate	OrigDataStartFrame	OrigNumFrames
200	200	10	35	m	200	251	1000
Frame#	Time	C7			LSH			RSH			MAN			RASI			LASI			HIPR			HIPL			RPSI			LPSI			COX			RTHI1			RTHI2			RTHI3			RTHI4			RSHA1			RSHA2			RSHA3			RSHA4			RHEEL			RMET5			RMET1			RTOE			LTHI1			LTHI2			LTHI3			LTHI4			LSHA1			LSHA2			LSHA3			LSHA4			LHEEL			LMET5			LMET1			LTOE			
		X1	Y1	Z1	X2	Y2	Z2	X3	Y3	Z3	X4	Y4	Z4	X5	Y5	Z5	X6	Y6	Z6	X7	Y7	Z7	X8	Y8	Z8	X9	Y9	Z9	X10	Y10	Z10	X11	Y11	Z11	X12	Y12	Z12	X13	Y13	Z13	X14	Y14	Z14	X15	Y15	Z15	X16	Y16	Z16	X17	Y17	Z17	X18	Y18	Z18	X19	Y19	Z19	X20	Y20	Z20	X21	Y21	Z21	X22	Y22	Z22	X23	Y23	Z23	X24	Y24	Z24	X25	Y25	Z25	X26	Y26	Z26	X27	Y27	Z27	X28	Y28	Z28	X29	Y29	Z29	X30	Y30	Z30	X31	Y31	Z31	X32	Y32	Z32	X33	Y33	Z33	X34	Y34	Z34	X35	Y35	Z35	
251	1.2550	-0.247951	1.371328	-0.524411	-0.197350	1.336646	-0.697209	-0.177002	1.326786	-0.348275	-0.129619	1.315424	-0.529907	-0.098876	0.920259	-0.442025	-0.098170	0.932261	-0.630975	-0.162134	0.970066	-0.397051	-0.152182	0.980932	-0.666752	-0.252235	0.953141	-0.472778	-0.250567	0.956625	-0.587860	-0.255735	0.963822	-0.530793	-0.213718	0.713350	-0.382472	-0.197635	0.655711	-0.377827	-0.136005	0.670106	-0.364231	-0.143830	0.731121	-0.365913	-0.268468	0.298185	-0.360125	-0.283512	0.260780	-0.363476	-0.231357	0.237397	-0.357794	-0.211191	0.274939	-0.358590	-0.352801	0.095597	-0.395701	-0.202734	0.029593	-0.342001	-0.175841	0.032752	-0.423673	-0.153131	0.027694	-0.413997	-0.181046	0.728697	-0.716674	-0.170689	0.668027	-0.720183	-0.106754	0.672091	-0.708050	-0.109725	0.731623	-0.703587	-0.272949	0.285835	-0.743680	-0.283326	0.242695	-0.741384	-0.231752	0.228476	-0.733566	-0.214477	0.265191	-0.735033	-0.358091	0.111481	-0.696222	-0.216508	0.029864	-0.767368	-0.185721	0.034952	-0.694073	-0.159800	0.026089	-0.705489	
252	1.2600	-0.248636	1.374749	-0.524337	-0.197983	1.340138	-0.697001	-0.177734	1.330623	-0.348228	-0.130216	1.319233	-0.529794	-0.098269	0.923742	-0.442069	-0.097509	0.935811	-0.630775	-0.161561	0.973614	-0.397019	-0.151464	0.984544	-0.666446	-0.251398	0.956756	-0.472717	-0.249704	0.960217	-0.587724	-0.254950	0.967360	-0.530707	-0.213446	0.717308	-0.381951	-0.197751	0.659577	-0.377284	-0.135947	0.673540	-0.364068	-0.143362	0.734618	-0.365809	-0.268642	0.300856	-0.359870	-0.283461	0.263340	-0.363158	-0.231212	0.240341	-0.357327	-0.211255	0.278038	-0.358134	-0.351541	0.098173	-0.395721	-0.202404	0.029904	-0.342298	-0.175678	0.032883	-0.423558	-0.153044	0.027727	-0.413946	-0.180826	0.732298	-0.716655	-0.170660	0.671603	-0.720260	-0.106684	0.675460	-0.708260	-0.109471	0.734991	-0.703715	-0.272667	0.288720	-0.744059	-0.282776	0.245450	-0.741862	-0.231034	0.231643	-0.734265	-0.214008	0.268500	-0.735677	-0.356406	0.114222	-0.696737	-0.215979	0.030269	-0.767301	-0.185434	0.035150	-0.694221	-0.159724	0.026103	-0.705502	
253	1.2650	-0.249335	1.378289	-0.524233	-0.198685	1.343816	-0.696748	-0.178453	1.334683	-0.348211	-0.130814	1.323196	-0.529673	-0.097664	0.927308	-0.442177	-0.096841	0.939394	-0.630602	-0.160873	0.977426	-0.396944	-0.150737	0.988180	-0.666231	-0.250512	0.960567	-0.472692	-0.248782	0.963989	-0.587613	-0.254119	0.971079	-0.530657	-0.213196	0.721440	-0.381357	-0.197914	0.663613	-0.376646	-0.135932	0.677111	-0.363823	-0.142909	0.738252	-0.365655	-0.268857	0.303601	-0.359596	-0.283426	0.265980	-0.362798	-0.231083	0.243375	-0.356762	-0.211356	0.281250	-0.357580	-0.350194	0.100814	-0.395723	-0.202052	0.030233	-0.342591	-0.175510	0.033046	-0.423392	-0.152952	0.027766	-0.413859	-0.180634	0.735992	-0.716672	-0.170673	0.675271	-0.720375	-0.106652	0.678903	-0.708518	-0.109242	0.738436	-0.703890	-0.272393	0.291637	-0.744449	-0.282194	0.248261	-0.742372	-0.230295	0.234878	-0.735013	-0.213534	0.271900	-0.736365	-0.354612	0.116975	-0.697297	-0.215400	0.030705	-0.767244	-0.185129	0.035362	-0.694390	-0.159646	0.026122	-0.705521	
254	1.2700	-0.250033	1.381903	-0.524098	-0.199437	1.347638	-0.696452	-0.179148	1.338891	-0.348228	-0.131439	1.327243	-0.529548	-0.097078	0.930926	-0.442342	-0.096171	0.942980	-0.630453	-0.160231	0.981404	-0.396975	-0.149988	0.991850	-0.666071	-0.249578	0.964539	-0.472703	-0.247811	0.967891	-0.587510	-0.253262	0.974945	-0.530632	-0.212967	0.725690	-0.380712	-0.198125	0.667756	-0.375930	-0.135959	0.680808	-0.363483	-0.142475	0.741972	-0.365448	-0.269116	0.306382	-0.359311	-0.283421	0.268665	-0.362420	-0.230965	0.246472	-0.356125	-0.211503	0.284532	-0.356926	-0.348764	0.103491	-0.395718	-0.201683	0.030581	-0.342879	-0.175331	0.033243	-0.423175	-0.152853	0.027805	-0.413734	-0.180460	0.739740	-0.716719	-0.170726	0.678987	-0.720519	-0.106660	0.682382	-0.708812	-0.109032	0.741919	-0.704099	-0.272126	0.294573	-0.744840	-0.281581	0.251104	-0.742906	-0.229527	0.238153	-0.735789	-0.213058	0.275344	-0.737066	-0.352726	0.119710	-0.697889	-0.214758	0.031190	-0.767197	-0.184805	0.035583	-0.694573	-0.159564	0.026145	-0.705544	
255	1.2750	-0.250722	1.385537	-0.523933	-0.200223	1.351555	-0.696123	-0.179812	1.343181	-0.348284	-0.132081	1.331323	-0.529424	-0.096526	0.934562	-0.442558	-0.095511	0.946540	-0.630318	-0.159404	0.985515	-0.397029	-0.149198	0.995572	-0.665933	-0.248616	0.968639	-0.472735	-0.246795	0.971904	-0.587426	-0.252379	0.978940	-0.530633	-0.212759	0.729998	-0.380027	-0.198377	0.671960	-0.375133	-0.136031	0.684550	-0.363066	-0.142062	0.745734	-0.365190	-0.269414	0.309171	-0.359013	-0.283448	0.271359	-0.362040	-0.230867	0.249591	-0.355430	-0.211697	0.287841	-0.356191	-0.347261	0.106168	-0.395700	-0.201303	0.030950	-0.343155	-0.175132	0.033475	-0.422916	-0.152732	0.027856	-0.413579	-0.180297	0.743509	-0.716787	-0.170809	0.682725	-0.720677	-0.106699	0.685866	-0.709123	-0.108839	0.745403	-0.704330	-0.271844	0.297505	-0.745219	-0.280933	0.253943	-0.743444	-0.228733	0.241430	-0.736573	-0.212576	0.278781	-0.737752	-0.350766	0.122408	-0.698503	-0.214052	0.031725	-0.767156	-0.184456	0.035821	-0.694770	-0.159465	0.026179	-0.705572	
256	1.2800	-0.251392	1.389149	-0.523746	-0.201043	1.355519	-0.695762	-0.180437	1.347494	-0.348379	-0.132741	1.335391	-0.529302	-0.096016	0.938172	-0.442816	-0.094864	0.950046	-0.630190	-0.158506	0.989584	-0.397258	-0.148358	0.999330	-0.665781	-0.247633	0.972819	-0.472783	-0.245742	0.975969	-0.587348	-0.251478	0.983000	-0.530661	-0.212574	0.734312	-0.379316	-0.198667	0.676149	-0.374296	-0.136147	0.688289	-0.362579	-0.141678	0.749488	-0.364882	-0.269754	0.311908	-0.358732	-0.283500	0.274015	-0.361666	-0.230790	0.252696	-0.354698	-0.211938	0.291129	-0.355391	-0.345686	0.108824	-0.395680	-0.200910	0.031350	-0.343423	-0.174905	0.033744	-0.422621	-0.152580	0.027926	-0.413392	-0.180143	0.747266	-0.716863	-0.170917	0.686450	-0.720837	-0.106766	0.689318	-0.709442	-0.108655	0.748856	-0.704568	-0.271547	0.300397	-0.745576	-0.280250	0.256741	-0.743968	-0.227904	0.244682	-0.737346	-0.212084	0.282182	-0.738411	-0.348744	0.125058	-0.699122	-0.213273	0.032320	-0.767113	-0.184084	0.036072	-0.694972	-0.159342	0.026220	-0.705602	
257	1.2850	-0.252037	1.392696	-0.523541	-0.201844	1.359468	-0.695370	-0.181013	1.351773	-0.348514	-0.133413	1.339401	-0.529186	-0.095562	0.941703	-0.443098	-0.094228	0.953474	-0.630062	-0.157558	0.993889	-0.397536	-0.147463	1.003106	-0.665595	-0.246638	0.977037	-0.472851	-0.244666	0.980036	-0.587270	-0.250576	0.987098	-0.530706	-0.212413	0.738569	-0.378588	-0.198984	0.680294	-0.373425	-0.136301	0.691976	-0.362035	-0.141324	0.753187	-0.364534	-0.270125	0.314582	-0.358467	-0.283571	0.276608	-0.361312	-0.230726	0.255745	-0.353950	-0.212217	0.294362	-0.354548	-0.344053	0.111436	-0.395662	-0.200495	0.031790	-0.343686	-0.174651	0.034048	-0.422283	-0.152405	0.028006	-0.413166	-0.179999	0.750983	-0.716931	-0.171052	0.690137	-0.720993	-0.106861	0.692709	-0.709756	-0.108475	0.752247	-0.704803	-0.271222	0.303222	-0.745902	-0.279530	0.259482	-0.744464	-0.227051	0.247868	-0.738088	-0.211577	0.285521	-0.739028	-0.346679	0.127633	-0.699732	-0.212413	0.032983	-0.767059	-0.183681	0.036339	-0.695176	-0.159186	0.026270	-0.705638	
258	1.2900	-0.252647	1.396141	-0.523324	-0.202617	1.363364	-0.694948	-0.181536	1.355959	-0.348687	-0.134106	1.343314	-0.529071	-0.095169	0.945123	-0.443392	-0.093608	0.956798	-0.629922	-0.156446	0.998228	-0.397910	-0.146517	1.006868	-0.665364	-0.245649	0.981245	-0.472928	-0.243584	0.984057	-0.587194	-0.249687	0.991192	-0.530758	-0.212273	0.742717	-0.377861	-0.199319	0.684341	-0.372538	-0.136487	0.695575	-0.361440	-0.141004	0.756791	-0.364150	-0.270520	0.317166	-0.358198	-0.283660	0.279101	-0.360990	-0.230683	0.258723	-0.353190	-0.212520	0.297500	-0.353680	-0.342381	0.113988	-0.395630	-0.200053	0.032272	-0.343949	-0.174363	0.034386	-0.421919	-0.152207	0.028103	-0.412901	-0.179864	0.754638	-0.716978	-0.171209	0.693758	-0.721134	-0.106980	0.696021	-0.710063	-0.108300	0.755557	-0.705028	-0.270869	0.305958	-0.746204	-0.278778	0.262132	-0.744933	-0.226168	0.250963	-0.738786	-0.211043	0.288765	-0.739614	-0.344616	0.130168	-0.700346	-0.211469	0.033718	-0.766986	-0.183248	0.036633	-0.695380	-0.158994	0.026329	-0.705678	
259	1.2950	-0.253213	1.399457	-0.523104	-0.203355	1.367165	-0.694508	-0.182005	1.360006	-0.348888	-0.134813	1.347099	-0.528953	-0.094837	0.948395	-0.443687	-0.093008	0.959999	-0.629760	-0.155344	1.002477	-0.398306	-0.145527	1.010577	-0.665094	-0.244680	0.985398	-0.473009	-0.242507	0.988050	-0.587151	-0.248816	0.995234	-0.530823	-0.212157	0.746715	-0.377152	-0.199664	0.688251	-0.371653	-0.136698	0.699030	-0.360820	-0.140721	0.760262	-0.363739	-0.270921	0.319643	-0.357915	-0.283751	0.281459	-0.360703	-0.230654	0.261591	-0.352431	-0.212833	0.300510	-0.352816	-0.340692	0.116460	-0.395529	-0.199581	0.032805	-0.344211	-0.174042	0.034759	-0.421531	-0.151990	0.028227	-0.412586	-0.179738	0.758202	-0.716999	-0.171383	0.697296	-0.721258	-0.107117	0.699231	-0.710357	-0.108137	0.758757	-0.705230	-0.270480	0.308570	-0.746487	-0.278001	0.264653	-0.745360	-0.225266	0.253939	-0.739430	-0.210486	0.291878	-0.740156	-0.342577	0.132642	-0.700947	-0.210453	0.034525	-0.766880	-0.182774	0.036962	-0.695596	-0.158756	0.026406	-0.705739	
260	1.3000	-0.253730	1.402630	-0.522884	-0.204053	1.370833	-0.694051	-0.182420	1.363870	-0.349112	-0.135540	1.350728	-0.528831	-0.094564	0.951488	-0.443965	-0.092425	0.963055	-0.629567	-0.155221	1.006356	-0.398697	-0.144513	1.014174	-0.664779	-0.243747	0.989451	-0.473085	-0.241454	0.991901	-0.587100	-0.247993	0.999162	-0.530888	-0.212071	0.750517	-0.376469	-0.200012	0.691978	-0.370806	-0.136929	0.702326	-0.360184	-0.140494	0.763569	-0.363310	-0.271307	0.321983	-0.357628	-0.283829	0.283672	-0.360447	-0.230619	0.264319	-0.351690	-0.213135	0.303375	-0.351969	-0.339009	0.118852	-0.395359	-0.199070	0.033395	-0.344477	-0.173687	0.035167	-0.421126	-0.151751	0.028386	-0.412216	-0.179624	0.761647	-0.716987	-0.171569	0.700720	-0.721368	-0.107268	0.702320	-0.710632	-0.107988	0.761836	-0.705393	-0.270067	0.311021	-0.746755	-0.277203	0.267033	-0.745744	-0.224350	0.256765	-0.740014	-0.209909	0.294844	-0.740660	-0.340580	0.135026	-0.701508	-0.209374	0.035408	-0.766734	-0.182261	0.037326	-0.695832	-0.158473	0.026504	-0.705838	
